HIERARCHY
ROOT Hips
{
	OFFSET 0.00000 0.00000 0.00000
	CHANNELS 6 Xposition Yposition Zposition Yrotation Zrotation Xrotation 
	JOINT Lumbar
	{
		OFFSET 0 0 0
		CHANNELS 3 Zrotation Xrotation Yrotation
		JOINT Neck
		{
			OFFSET 0.00 0.2701 0.00
			CHANNELS 3 Zrotation Xrotation Yrotation
			End Site
			{
				OFFSET 0.00 0.1379 0.00
			}
		}
		JOINT RightShoulder
		{
			OFFSET 0.0119 0.2289 0.1181
			CHANNELS 3 Zrotation Xrotation Yrotation
			JOINT RightElbow
			{
				OFFSET 0.00 -0.1475 0.00
				CHANNELS 2 Zrotation Yrotation
				JOINT RightWrist
				{
					OFFSET 0.00 -0.1605 0.00
					CHANNELS 2 Zrotation Xrotation
					End Site
					{
						OFFSET 0.0040 -0.1068 0.0006
					}
				}
			}
		}
		JOINT LeftShoulder
		{
			OFFSET 0.0119 0.2289 -0.1181
			CHANNELS 3 Zrotation Xrotation Yrotation
			JOINT LeftElbow
			{
				OFFSET 0.00 -0.1475 0.00
				CHANNELS 2 Zrotation Yrotation
				JOINT LeftWrist
				{
					OFFSET 0.00 -0.1605 0.00
					CHANNELS 2 Zrotation Xrotation
					End Site
					{
						OFFSET 0.0040 -0.1068 -0.0006
					}
				}
			}
		}
	}
	JOINT RightHip
	{
		OFFSET 0.0316 -0.0424 0.0458
		CHANNELS 3 Zrotation Xrotation Yrotation
		JOINT RightKnee
		{
			OFFSET 0.00 -0.2438 0.00
			CHANNELS 1 Zrotation
			JOINT RightAnkle
			{
				OFFSET 0.00 -0.2449 0.00
				CHANNELS 3 Zrotation Xrotation Yrotation
				End Site
				{
					OFFSET 0.1237 -0.0542 0.0051
				}
			}
		}
	}
	JOINT LeftHip
	{
		OFFSET 0.0316 -0.0424 -0.0458
		CHANNELS 3 Zrotation Xrotation Yrotation
		JOINT LeftKnee
		{
			OFFSET 0.00 -0.2438 0.00
			CHANNELS 1 Zrotation
			JOINT LeftAnkle
			{
				OFFSET 0.00 -0.2449 0.00
				CHANNELS 3 Zrotation Xrotation Yrotation
				End Site
				{
					OFFSET 0.1237 -0.0542 -0.0051
				}
			}
		}
	}
}
MOTION
Frames: 14
Frame Time: 0.02
0 0.57926 0 179.13659 0 3.43736 8.45001 -1.80141 -1.81111 -29.1227 2.82099 2.48072 20.7717 -13.12375 2.17897 9.73642 82.65936 -0.50582 1.16467 22.89552 4.73378 -6.10551 7.74266 -74.14037 -5.70102 -0.20938 1.39919 4.99475 25.00973 -22.02755 21.20594 -16.68439 -3.59521 0.07004 -4.86567 -18.4415 -18.33479 10.23281 8.08377 9.10226
-0.00015 0.57932 -0.00021 179.27903 0 3.45138 8.45739 -1.78984 -1.78774 -29.0979 2.79279 2.46731 20.7515 -13.1373 2.19705 9.73401 82.61069 -0.49544 1.18001 22.89687 4.74811 -6.0016 7.74795 -74.11447 -5.73745 -0.18867 1.37519 4.9668 24.77808 -21.99073 21.21154 -16.29308 -3.46522 0.08695 -4.81908 -18.31875 -18.33279 10.26424 7.97396 8.84342
-0.00031 0.57937 -0.00043 179.42204 0 3.46582 8.46523 -1.77883 -1.76412 -29.07392 2.76378 2.45331 20.73171 -13.14923 2.2143 9.73161 82.56191 -0.48511 1.19511 22.89887 4.76392 -5.90063 7.75414 -74.08937 -5.77397 -0.16731 1.35132 4.93857 24.54549 -21.9541 21.21711 -15.90168 -3.33541 0.10361 -4.77234 -18.19457 -18.3297 10.29526 7.86224 8.58211
-0.00046 0.57943 -0.00064 179.56383 0 3.48176 8.47442 -1.76991 -1.74014 -29.05221 2.73372 2.43909 20.71378 -13.15823 2.23072 9.72948 82.51224 -0.47512 1.2095 22.90227 4.78234 -5.8051 7.76269 -74.0662 -5.81039 -0.14403 1.32753 4.90944 24.31298 -21.91791 21.22262 -15.50739 -3.20525 0.11756 -4.72391 -18.05933 -18.32023 10.32517 7.74256 8.30911
-0.00061 0.57947 -0.00084 179.7061 0 3.4894 8.47577 -1.74987 -1.71911 -29.01756 2.71217 2.42876 20.68651 -13.18691 2.25438 9.72627 82.46731 -0.46363 1.22781 22.89673 4.78277 -5.6744 7.75717 -74.0316 -5.84634 -0.13199 1.30309 4.88567 24.0874 -21.87948 21.22846 -15.12975 -3.07715 0.14355 -4.68367 -17.97763 -18.34212 10.36121 7.66595 8.09894
-0.00077 0.57955 -0.00108 179.85132 0 3.51484 8.49413 -1.75338 -1.69117 -29.01093 2.67064 2.40836 20.67868 -13.17112 2.26076 9.72509 82.41237 -0.45512 1.2377 22.91113 4.8241 -5.62251 7.7825 -74.02201 -5.88392 -0.09549 1.2802 4.85018 23.8424 -21.84576 21.23361 -14.7164 -2.94471 0.14565 -4.6267 -17.78621 -18.29932 10.38409 7.49768 7.75548
-0.00101 0.57974 -0.00144 179.97633 0 3.58978 8.5582 -1.82447 -1.64806 -29.07971 2.58732 2.37411 20.72923 -13.05081 2.23345 9.73156 82.32755 -0.45659 1.22489 22.97525 4.96024 -5.75829 7.88781 -74.07692 -5.92162 0.00609 1.25997 4.78378 23.57668 -21.8253 21.23681 -14.20097 -2.79856 0.06642 -4.51582 -17.24734 -18.05647 10.37136 7.06738 7.02525
-0.00125 0.57997 -0.00185 180.11087 0 3.68276 8.63967 -1.91898 -1.597 -29.17753 2.48102 2.32706 20.79866 -12.88185 2.18553 9.73952 82.23294 -0.4607 1.20357 23.06107 5.14146 -5.97885 8.02538 -74.15782 -5.96186 0.13288 1.24167 4.70524 23.28483 -21.80968 21.23931 -13.65253 -2.64919 -0.03382 -4.38955 -16.60602 -17.75216 10.34521 6.54551 6.16283
-0.00148 0.58018 -0.00222 180.25818 0 3.76728 8.71417 -2.00115 -1.54723 -29.26307 2.37669 2.27679 20.85638 -12.7234 2.1386 9.7457 82.14419 -0.46257 1.18566 23.13983 5.31368 -6.18095 8.15172 -74.23009 -6.00384 0.24997 1.22341 4.63121 22.98345 -21.79149 21.24222 -13.11701 -2.50099 -0.11507 -4.27494 -16.03887 -17.48931 10.32469 6.07104 5.37239
-0.00176 0.58041 -0.00264 180.32846 0 3.85267 8.785 -2.09028 -1.50812 -29.34351 2.30911 2.26479 20.92706 -12.61495 2.12933 9.75727 82.04952 -0.46909 1.1693 23.2046 5.43621 -6.30028 8.26348 -74.28959 -6.0335 0.35986 1.20093 4.56138 22.77326 -21.77428 21.2449 -12.57812 -2.34998 -0.23774 -4.13983 -15.35225 -17.1686 10.30608 5.57302 4.53279
-0.00194 0.58061 -0.00298 180.56749 0 3.94084 8.86723 -2.17069 -1.44387 -29.44298 2.1583 2.1699 20.97553 -12.38949 2.03385 9.75706 81.96481 -0.46621 1.14818 23.30638 5.6744 -6.60968 8.41338 -74.38102 -6.08953 0.49043 1.18814 4.47999 22.36589 -21.75693 21.24771 -12.05373 -2.20916 -0.27716 -4.0448 -14.89389 -16.95482 10.28038 5.10125 3.76293
-0.00189 0.58075 -0.00311 181.22046 0 4.02934 8.97931 -2.21902 -1.32071 -29.57426 1.79392 1.85008 20.95501 -11.86419 1.73093 9.73165 81.91123 -0.43992 1.11192 23.48114 6.20839 -7.44389 8.65987 -74.56133 -6.21661 0.67436 1.19772 4.36898 21.42774 -21.73092 21.25261 -11.44318 -2.05325 -0.09795 -4.05564 -15.05973 -17.04285 10.23821 4.73321 3.22821
-0.00174 0.58086 -0.00315 182.05334 0 4.12032 9.10139 -2.25785 -1.17068 -29.72576 1.34478 1.44704 20.91162 -11.22094 1.33796 9.69285 81.86825 -0.40353 1.07197 23.69646 6.85942 -8.46223 8.94386 -74.77146 -6.37023 0.87757 1.21762 4.24693 20.28983 -21.70546 21.25736 -10.87129 -1.91574 0.16914 -4.10908 -15.46541 -17.24238 10.18962 4.39305 2.76623
-0.00161 0.58097 -0.00322 182.83506 0 4.21242 9.21763 -2.30293 -1.02766 -29.87758 0.92723 1.08167 20.88127 -10.62391 0.96844 9.65518 81.81899 -0.36964 1.03631 23.90941 7.46529 -9.38313 9.21112 -74.96343 -6.51258 1.07059 1.23553 4.13027 19.23969 -21.68498 21.26124 -10.37246 -1.79888 0.40634 -4.14853 -15.78072 -17.39618 10.14378 4.03433 2.26436
